<mxfile host="app.diagrams.net" modified="2024-02-23T10:30:22.949Z" agent="Mozilla/5.0 (Windows NT 10.0; Win64; x64) AppleWebKit/537.36 (KHTML, like Gecko) Chrome/121.0.0.0 Safari/537.36" etag="QvIoXvENlaDZ5a9SanML" version="23.1.5" type="github" pages="2">
  <diagram name="第 1 页" id="eKCH6Yrh1MQp08J-hKyi">
    <mxGraphModel dx="780" dy="486" grid="0" gridSize="10" guides="1" tooltips="1" connect="1" arrows="1" fold="1" page="1" pageScale="1" pageWidth="1200" pageHeight="1920" math="0" shadow="0">
      <root>
        <mxCell id="0" />
        <mxCell id="1" parent="0" />
        <mxCell id="NoIh1lqZoHN_tGYTvnJ6-7" style="edgeStyle=orthogonalEdgeStyle;rounded=0;orthogonalLoop=1;jettySize=auto;html=1;exitX=1;exitY=0.5;exitDx=0;exitDy=0;entryX=0;entryY=0.5;entryDx=0;entryDy=0;endArrow=none;endFill=0;" edge="1" parent="1" source="NoIh1lqZoHN_tGYTvnJ6-1" target="NoIh1lqZoHN_tGYTvnJ6-2">
          <mxGeometry relative="1" as="geometry" />
        </mxCell>
        <mxCell id="NoIh1lqZoHN_tGYTvnJ6-8" style="edgeStyle=orthogonalEdgeStyle;rounded=0;orthogonalLoop=1;jettySize=auto;html=1;exitX=1;exitY=0.5;exitDx=0;exitDy=0;entryX=0;entryY=0.5;entryDx=0;entryDy=0;endArrow=none;endFill=0;" edge="1" parent="1" source="NoIh1lqZoHN_tGYTvnJ6-1" target="NoIh1lqZoHN_tGYTvnJ6-4">
          <mxGeometry relative="1" as="geometry" />
        </mxCell>
        <mxCell id="NoIh1lqZoHN_tGYTvnJ6-9" style="edgeStyle=orthogonalEdgeStyle;rounded=0;orthogonalLoop=1;jettySize=auto;html=1;exitX=1;exitY=0.5;exitDx=0;exitDy=0;entryX=0;entryY=0.5;entryDx=0;entryDy=0;endArrow=none;endFill=0;" edge="1" parent="1" source="NoIh1lqZoHN_tGYTvnJ6-1" target="NoIh1lqZoHN_tGYTvnJ6-3">
          <mxGeometry relative="1" as="geometry" />
        </mxCell>
        <mxCell id="NoIh1lqZoHN_tGYTvnJ6-12" style="edgeStyle=orthogonalEdgeStyle;rounded=0;orthogonalLoop=1;jettySize=auto;html=1;exitX=1;exitY=0.5;exitDx=0;exitDy=0;endArrow=none;endFill=0;" edge="1" parent="1" source="NoIh1lqZoHN_tGYTvnJ6-1" target="NoIh1lqZoHN_tGYTvnJ6-5">
          <mxGeometry relative="1" as="geometry" />
        </mxCell>
        <mxCell id="NoIh1lqZoHN_tGYTvnJ6-13" style="edgeStyle=orthogonalEdgeStyle;rounded=0;orthogonalLoop=1;jettySize=auto;html=1;exitX=1;exitY=0.5;exitDx=0;exitDy=0;entryX=0;entryY=0.5;entryDx=0;entryDy=0;endArrow=none;endFill=0;" edge="1" parent="1" source="NoIh1lqZoHN_tGYTvnJ6-1" target="NoIh1lqZoHN_tGYTvnJ6-6">
          <mxGeometry relative="1" as="geometry" />
        </mxCell>
        <mxCell id="NoIh1lqZoHN_tGYTvnJ6-1" value="综合应用服务分系统" style="rounded=0;whiteSpace=wrap;html=1;" vertex="1" parent="1">
          <mxGeometry x="90" y="395" width="120" height="60" as="geometry" />
        </mxCell>
        <mxCell id="NoIh1lqZoHN_tGYTvnJ6-2" value="数据汇集子系统" style="rounded=0;whiteSpace=wrap;html=1;" vertex="1" parent="1">
          <mxGeometry x="280" y="330" width="170" height="30" as="geometry" />
        </mxCell>
        <mxCell id="NoIh1lqZoHN_tGYTvnJ6-3" value="数据管理子系统" style="rounded=0;whiteSpace=wrap;html=1;" vertex="1" parent="1">
          <mxGeometry x="280" y="410" width="170" height="30" as="geometry" />
        </mxCell>
        <mxCell id="NoIh1lqZoHN_tGYTvnJ6-4" value="数据清洗子系统" style="rounded=0;whiteSpace=wrap;html=1;" vertex="1" parent="1">
          <mxGeometry x="280" y="370" width="170" height="30" as="geometry" />
        </mxCell>
        <mxCell id="NoIh1lqZoHN_tGYTvnJ6-5" value="监控运维子系统" style="rounded=0;whiteSpace=wrap;html=1;" vertex="1" parent="1">
          <mxGeometry x="280" y="450" width="170" height="30" as="geometry" />
        </mxCell>
        <mxCell id="NoIh1lqZoHN_tGYTvnJ6-6" value="门户管理与资源调度子系统" style="rounded=0;whiteSpace=wrap;html=1;" vertex="1" parent="1">
          <mxGeometry x="280" y="490" width="170" height="30" as="geometry" />
        </mxCell>
      </root>
    </mxGraphModel>
  </diagram>
  <diagram id="nkiX5e7yRtXr2Pxfv9d-" name="第 2 页">
    <mxGraphModel dx="979" dy="528" grid="1" gridSize="10" guides="1" tooltips="1" connect="1" arrows="1" fold="1" page="1" pageScale="1" pageWidth="1200" pageHeight="1920" math="0" shadow="0">
      <root>
        <mxCell id="0" />
        <mxCell id="1" parent="0" />
        <mxCell id="P7oMfOCCoxa92lgaIV1w-90" style="edgeStyle=orthogonalEdgeStyle;rounded=0;orthogonalLoop=1;jettySize=auto;html=1;exitX=1;exitY=0.5;exitDx=0;exitDy=0;fontFamily=Helvetica;" edge="1" parent="1" source="P7oMfOCCoxa92lgaIV1w-48" target="P7oMfOCCoxa92lgaIV1w-87">
          <mxGeometry relative="1" as="geometry" />
        </mxCell>
        <mxCell id="P7oMfOCCoxa92lgaIV1w-91" style="edgeStyle=orthogonalEdgeStyle;rounded=0;orthogonalLoop=1;jettySize=auto;html=1;exitX=1;exitY=0.5;exitDx=0;exitDy=0;entryX=0;entryY=0.5;entryDx=0;entryDy=0;fontFamily=Helvetica;" edge="1" parent="1" source="P7oMfOCCoxa92lgaIV1w-48" target="P7oMfOCCoxa92lgaIV1w-63">
          <mxGeometry relative="1" as="geometry" />
        </mxCell>
        <mxCell id="P7oMfOCCoxa92lgaIV1w-48" value="" style="rounded=0;whiteSpace=wrap;html=1;flipV=0;fontFamily=Helvetica;" vertex="1" parent="1">
          <mxGeometry x="530" y="120" width="150" height="280" as="geometry" />
        </mxCell>
        <mxCell id="P7oMfOCCoxa92lgaIV1w-58" value="" style="rounded=0;whiteSpace=wrap;html=1;fontFamily=Helvetica;" vertex="1" parent="1">
          <mxGeometry x="545" y="297.5" width="120" height="90" as="geometry" />
        </mxCell>
        <mxCell id="P7oMfOCCoxa92lgaIV1w-57" value="" style="rounded=0;whiteSpace=wrap;html=1;fontFamily=Helvetica;" vertex="1" parent="1">
          <mxGeometry x="545" y="143.75" width="120" height="130" as="geometry" />
        </mxCell>
        <mxCell id="P7oMfOCCoxa92lgaIV1w-62" style="edgeStyle=orthogonalEdgeStyle;rounded=0;orthogonalLoop=1;jettySize=auto;html=1;exitX=1;exitY=0.5;exitDx=0;exitDy=0;entryX=0;entryY=0.5;entryDx=0;entryDy=0;fontFamily=Helvetica;" edge="1" parent="1" source="P7oMfOCCoxa92lgaIV1w-31" target="P7oMfOCCoxa92lgaIV1w-48">
          <mxGeometry relative="1" as="geometry" />
        </mxCell>
        <mxCell id="P7oMfOCCoxa92lgaIV1w-31" value="" style="rounded=0;whiteSpace=wrap;html=1;fontFamily=Helvetica;" vertex="1" parent="1">
          <mxGeometry x="350" y="120" width="150" height="280" as="geometry" />
        </mxCell>
        <mxCell id="P7oMfOCCoxa92lgaIV1w-40" value="" style="rounded=0;whiteSpace=wrap;html=1;fontFamily=Helvetica;" vertex="1" parent="1">
          <mxGeometry x="435" y="237.5" width="60" height="132.5" as="geometry" />
        </mxCell>
        <mxCell id="P7oMfOCCoxa92lgaIV1w-44" style="edgeStyle=orthogonalEdgeStyle;rounded=0;orthogonalLoop=1;jettySize=auto;html=1;exitX=1;exitY=0.5;exitDx=0;exitDy=0;entryX=0;entryY=0.5;entryDx=0;entryDy=0;fontFamily=Helvetica;" edge="1" parent="1" source="P7oMfOCCoxa92lgaIV1w-38" target="P7oMfOCCoxa92lgaIV1w-40">
          <mxGeometry relative="1" as="geometry" />
        </mxCell>
        <mxCell id="P7oMfOCCoxa92lgaIV1w-38" value="" style="rounded=0;whiteSpace=wrap;html=1;fontFamily=Helvetica;" vertex="1" parent="1">
          <mxGeometry x="355" y="237.5" width="60" height="132.5" as="geometry" />
        </mxCell>
        <mxCell id="P7oMfOCCoxa92lgaIV1w-46" style="edgeStyle=orthogonalEdgeStyle;rounded=0;orthogonalLoop=1;jettySize=auto;html=1;exitX=1;exitY=0.5;exitDx=0;exitDy=0;entryX=0;entryY=0.5;entryDx=0;entryDy=0;fontFamily=Helvetica;" edge="1" parent="1" source="P7oMfOCCoxa92lgaIV1w-6" target="P7oMfOCCoxa92lgaIV1w-31">
          <mxGeometry relative="1" as="geometry" />
        </mxCell>
        <mxCell id="P7oMfOCCoxa92lgaIV1w-6" value="" style="rounded=0;whiteSpace=wrap;html=1;fontFamily=Helvetica;" vertex="1" parent="1">
          <mxGeometry x="190" y="120" width="130" height="280" as="geometry" />
        </mxCell>
        <mxCell id="P7oMfOCCoxa92lgaIV1w-24" value="" style="rounded=0;whiteSpace=wrap;html=1;fontFamily=Helvetica;" vertex="1" parent="1">
          <mxGeometry x="200" y="190" width="110" height="160" as="geometry" />
        </mxCell>
        <mxCell id="P7oMfOCCoxa92lgaIV1w-1" value="&lt;p class=&quot;MsoNormal&quot;&gt;地震灾害链野外观测科学数据&lt;/p&gt;" style="rounded=0;whiteSpace=wrap;html=1;fontFamily=Helvetica;" vertex="1" parent="1">
          <mxGeometry x="10" y="185" width="120" height="30" as="geometry" />
        </mxCell>
        <mxCell id="P7oMfOCCoxa92lgaIV1w-2" value="&lt;p class=&quot;MsoNormal&quot;&gt;地震灾害链科学实验数据&lt;/p&gt;" style="rounded=0;whiteSpace=wrap;html=1;fontFamily=Helvetica;" vertex="1" parent="1">
          <mxGeometry x="10" y="225" width="120" height="30" as="geometry" />
        </mxCell>
        <mxCell id="P7oMfOCCoxa92lgaIV1w-3" value="&lt;p class=&quot;MsoNormal&quot;&gt;中国地震科学实验场形成实验数据&lt;/p&gt;" style="rounded=0;whiteSpace=wrap;html=1;fontFamily=Helvetica;" vertex="1" parent="1">
          <mxGeometry x="10" y="265" width="120" height="30" as="geometry" />
        </mxCell>
        <mxCell id="P7oMfOCCoxa92lgaIV1w-4" value="&lt;p class=&quot;MsoNormal&quot;&gt;其他数据&lt;/p&gt;" style="rounded=0;whiteSpace=wrap;html=1;fontFamily=Helvetica;" vertex="1" parent="1">
          <mxGeometry x="10" y="305" width="120" height="30" as="geometry" />
        </mxCell>
        <mxCell id="P7oMfOCCoxa92lgaIV1w-98" style="edgeStyle=orthogonalEdgeStyle;rounded=0;orthogonalLoop=1;jettySize=auto;html=1;exitX=0;exitY=0.5;exitDx=0;exitDy=0;exitPerimeter=0;entryX=0;entryY=0.5;entryDx=0;entryDy=0;" edge="1" parent="1" source="P7oMfOCCoxa92lgaIV1w-12" target="P7oMfOCCoxa92lgaIV1w-6">
          <mxGeometry relative="1" as="geometry" />
        </mxCell>
        <mxCell id="P7oMfOCCoxa92lgaIV1w-12" value="" style="strokeWidth=2;html=1;shape=mxgraph.flowchart.annotation_1;align=left;pointerEvents=1;rotation=-180;fontFamily=Helvetica;" vertex="1" parent="1">
          <mxGeometry x="140" y="195" width="10" height="130" as="geometry" />
        </mxCell>
        <mxCell id="P7oMfOCCoxa92lgaIV1w-21" value="&lt;p class=&quot;MsoNormal&quot; style=&quot;font-size: 14px;&quot;&gt;数据汇集子系统&lt;/p&gt;" style="text;html=1;align=center;verticalAlign=middle;whiteSpace=wrap;rounded=0;fontStyle=1;fontSize=14;fontFamily=Helvetica;" vertex="1" parent="1">
          <mxGeometry x="210" y="90" width="100" height="30" as="geometry" />
        </mxCell>
        <mxCell id="P7oMfOCCoxa92lgaIV1w-23" value="专用数据采集&lt;br&gt;通讯协议" style="rounded=0;whiteSpace=wrap;html=1;fontFamily=Helvetica;" vertex="1" parent="1">
          <mxGeometry x="200" y="130" width="110" height="30" as="geometry" />
        </mxCell>
        <mxCell id="P7oMfOCCoxa92lgaIV1w-25" value="&lt;br style=&quot;border-color: var(--border-color); color: rgb(0, 0, 0); font-size: 12px; font-style: normal; font-variant-ligatures: normal; font-variant-caps: normal; font-weight: 400; letter-spacing: normal; orphans: 2; text-align: center; text-indent: 0px; text-transform: none; widows: 2; word-spacing: 0px; -webkit-text-stroke-width: 0px; background-color: rgb(251, 251, 251); text-decoration-thickness: initial; text-decoration-style: initial; text-decoration-color: initial;&quot;&gt;&lt;span style=&quot;border-color: var(--border-color); color: rgb(0, 0, 0); font-size: 12px; font-style: normal; font-variant-ligatures: normal; font-variant-caps: normal; font-weight: 400; letter-spacing: normal; orphans: 2; text-align: center; text-indent: 0px; text-transform: none; widows: 2; word-spacing: 0px; -webkit-text-stroke-width: 0px; text-decoration-thickness: initial; text-decoration-style: initial; text-decoration-color: initial; background-color: rgb(251, 251, 251); float: none; display: inline !important;&quot;&gt;多源数据采集&lt;/span&gt;&lt;br style=&quot;border-color: var(--border-color); color: rgb(0, 0, 0); font-size: 12px; font-style: normal; font-variant-ligatures: normal; font-variant-caps: normal; font-weight: 400; letter-spacing: normal; orphans: 2; text-align: center; text-indent: 0px; text-transform: none; widows: 2; word-spacing: 0px; -webkit-text-stroke-width: 0px; background-color: rgb(251, 251, 251); text-decoration-thickness: initial; text-decoration-style: initial; text-decoration-color: initial;&quot;&gt;" style="text;whiteSpace=wrap;html=1;fontFamily=Helvetica;" vertex="1" parent="1">
          <mxGeometry x="215" y="150" width="80" height="50" as="geometry" />
        </mxCell>
        <mxCell id="P7oMfOCCoxa92lgaIV1w-29" value="&lt;div&gt;其他数据兼容&lt;/div&gt;&lt;div&gt;与数据录入模块&lt;/div&gt;" style="rounded=0;whiteSpace=wrap;html=1;fontFamily=Helvetica;" vertex="1" parent="1">
          <mxGeometry x="200" y="360" width="110" height="30" as="geometry" />
        </mxCell>
        <mxCell id="P7oMfOCCoxa92lgaIV1w-32" value="&lt;div&gt;数据转换与&lt;/div&gt;&lt;div&gt;清洗规则制定&lt;/div&gt;" style="rounded=0;whiteSpace=wrap;html=1;fontFamily=Helvetica;" vertex="1" parent="1">
          <mxGeometry x="357.5" y="170" width="135" height="30" as="geometry" />
        </mxCell>
        <mxCell id="P7oMfOCCoxa92lgaIV1w-33" value="&lt;p class=&quot;MsoNormal&quot;&gt;自动转换&lt;/p&gt;" style="rounded=0;whiteSpace=wrap;html=1;fontFamily=Helvetica;" vertex="1" parent="1">
          <mxGeometry x="357.5" y="247.5" width="55" height="50" as="geometry" />
        </mxCell>
        <mxCell id="P7oMfOCCoxa92lgaIV1w-34" value="&lt;p class=&quot;MsoNormal&quot;&gt;人工转换&lt;/p&gt;" style="rounded=0;whiteSpace=wrap;html=1;fontFamily=Helvetica;" vertex="1" parent="1">
          <mxGeometry x="357.5" y="312.5" width="55" height="50" as="geometry" />
        </mxCell>
        <mxCell id="P7oMfOCCoxa92lgaIV1w-36" value="&lt;p class=&quot;MsoNormal&quot;&gt;数据检查&lt;/p&gt;" style="rounded=0;whiteSpace=wrap;html=1;fontFamily=Helvetica;" vertex="1" parent="1">
          <mxGeometry x="437.5" y="247.5" width="55" height="30" as="geometry" />
        </mxCell>
        <mxCell id="P7oMfOCCoxa92lgaIV1w-37" value="&lt;p class=&quot;MsoNormal&quot;&gt;数据过滤&lt;/p&gt;" style="rounded=0;whiteSpace=wrap;html=1;fontFamily=Helvetica;" vertex="1" parent="1">
          <mxGeometry x="437.5" y="287.5" width="55" height="30" as="geometry" />
        </mxCell>
        <mxCell id="P7oMfOCCoxa92lgaIV1w-39" value="数据转换" style="text;html=1;align=center;verticalAlign=middle;whiteSpace=wrap;rounded=0;fontFamily=Helvetica;" vertex="1" parent="1">
          <mxGeometry x="357.5" y="212.5" width="60" height="30" as="geometry" />
        </mxCell>
        <mxCell id="P7oMfOCCoxa92lgaIV1w-42" value="数据清洗" style="text;html=1;align=center;verticalAlign=middle;whiteSpace=wrap;rounded=0;fontFamily=Helvetica;" vertex="1" parent="1">
          <mxGeometry x="432.5" y="212.5" width="60" height="30" as="geometry" />
        </mxCell>
        <mxCell id="P7oMfOCCoxa92lgaIV1w-45" value="&lt;p class=&quot;MsoNormal&quot; style=&quot;font-size: 14px;&quot;&gt;数据清洗子系统&lt;/p&gt;" style="text;html=1;align=center;verticalAlign=middle;whiteSpace=wrap;rounded=0;fontStyle=1;fontSize=14;fontFamily=Helvetica;" vertex="1" parent="1">
          <mxGeometry x="380" y="90" width="100" height="30" as="geometry" />
        </mxCell>
        <mxCell id="P7oMfOCCoxa92lgaIV1w-47" value="&lt;p class=&quot;MsoNormal&quot;&gt;数据加工&lt;/p&gt;" style="rounded=0;whiteSpace=wrap;html=1;fontFamily=Helvetica;" vertex="1" parent="1">
          <mxGeometry x="437.5" y="327.5" width="55" height="30" as="geometry" />
        </mxCell>
        <mxCell id="P7oMfOCCoxa92lgaIV1w-49" value="&lt;p class=&quot;MsoNormal&quot; style=&quot;font-size: 14px;&quot;&gt;数据管理子系统&lt;/p&gt;" style="text;html=1;align=center;verticalAlign=middle;whiteSpace=wrap;rounded=0;fontStyle=1;fontSize=14;fontFamily=Helvetica;" vertex="1" parent="1">
          <mxGeometry x="552.5" y="90" width="105" height="30" as="geometry" />
        </mxCell>
        <mxCell id="P7oMfOCCoxa92lgaIV1w-50" value="&lt;div&gt;基础信息管理&lt;/div&gt;" style="rounded=0;whiteSpace=wrap;html=1;flipV=0;fontFamily=Helvetica;" vertex="1" parent="1">
          <mxGeometry x="555" y="303.75" width="100" height="20" as="geometry" />
        </mxCell>
        <mxCell id="P7oMfOCCoxa92lgaIV1w-51" value="&lt;div&gt;日志信息管理&lt;/div&gt;" style="rounded=0;whiteSpace=wrap;html=1;flipV=0;fontFamily=Helvetica;" vertex="1" parent="1">
          <mxGeometry x="555" y="331.25" width="100" height="20" as="geometry" />
        </mxCell>
        <mxCell id="P7oMfOCCoxa92lgaIV1w-52" value="&lt;div&gt;数据对外服务&lt;/div&gt;" style="rounded=0;whiteSpace=wrap;html=1;flipV=0;fontFamily=Helvetica;" vertex="1" parent="1">
          <mxGeometry x="555" y="361.25" width="100" height="20" as="geometry" />
        </mxCell>
        <mxCell id="P7oMfOCCoxa92lgaIV1w-53" value="&lt;div&gt;数据库存储策略&lt;/div&gt;" style="rounded=0;whiteSpace=wrap;html=1;flipV=0;fontFamily=Helvetica;" vertex="1" parent="1">
          <mxGeometry x="555" y="153.75" width="100" height="20" as="geometry" />
        </mxCell>
        <mxCell id="P7oMfOCCoxa92lgaIV1w-54" value="&lt;div&gt;库表结构设计&lt;/div&gt;" style="rounded=0;whiteSpace=wrap;html=1;flipV=0;fontFamily=Helvetica;" vertex="1" parent="1">
          <mxGeometry x="555" y="183.75" width="100" height="20" as="geometry" />
        </mxCell>
        <mxCell id="P7oMfOCCoxa92lgaIV1w-55" value="&lt;div&gt;编码与规则表&lt;/div&gt;" style="rounded=0;whiteSpace=wrap;html=1;flipV=0;fontFamily=Helvetica;" vertex="1" parent="1">
          <mxGeometry x="555" y="213.75" width="100" height="20" as="geometry" />
        </mxCell>
        <mxCell id="P7oMfOCCoxa92lgaIV1w-56" value="&lt;div&gt;数据库集群&lt;/div&gt;" style="rounded=0;whiteSpace=wrap;html=1;flipV=0;fontFamily=Helvetica;" vertex="1" parent="1">
          <mxGeometry x="555" y="243.75" width="100" height="20" as="geometry" />
        </mxCell>
        <mxCell id="P7oMfOCCoxa92lgaIV1w-60" value="数据存储" style="text;html=1;align=center;verticalAlign=middle;whiteSpace=wrap;rounded=0;fontSize=14;fontFamily=Helvetica;" vertex="1" parent="1">
          <mxGeometry x="575" y="117" width="60" height="30" as="geometry" />
        </mxCell>
        <mxCell id="P7oMfOCCoxa92lgaIV1w-61" value="数据管理" style="text;html=1;align=center;verticalAlign=middle;whiteSpace=wrap;rounded=0;fontSize=14;fontFamily=Helvetica;" vertex="1" parent="1">
          <mxGeometry x="570" y="271.75" width="60" height="30" as="geometry" />
        </mxCell>
        <mxCell id="P7oMfOCCoxa92lgaIV1w-63" value="" style="rounded=0;whiteSpace=wrap;html=1;flipV=0;fontFamily=Helvetica;" vertex="1" parent="1">
          <mxGeometry x="720" y="280" width="360" height="120" as="geometry" />
        </mxCell>
        <mxCell id="P7oMfOCCoxa92lgaIV1w-66" value="&lt;p class=&quot;MsoNormal&quot;&gt;&lt;br&gt;&lt;/p&gt;" style="rounded=0;whiteSpace=wrap;html=1;fontFamily=Helvetica;" vertex="1" parent="1">
          <mxGeometry x="930" y="325.13" width="140" height="50" as="geometry" />
        </mxCell>
        <mxCell id="P7oMfOCCoxa92lgaIV1w-68" value="" style="rounded=0;whiteSpace=wrap;html=1;fontFamily=Helvetica;" vertex="1" parent="1">
          <mxGeometry x="775" y="318.63" width="145" height="70" as="geometry" />
        </mxCell>
        <mxCell id="P7oMfOCCoxa92lgaIV1w-70" value="&lt;p class=&quot;MsoNormal&quot;&gt;告警信息响应规则制定&lt;/p&gt;" style="rounded=0;whiteSpace=wrap;html=1;fontFamily=Helvetica;" vertex="1" parent="1">
          <mxGeometry x="780" y="323.88" width="65" height="28" as="geometry" />
        </mxCell>
        <mxCell id="P7oMfOCCoxa92lgaIV1w-74" value="&lt;p class=&quot;MsoNormal&quot;&gt;生成运行质量报告&lt;/p&gt;" style="rounded=0;whiteSpace=wrap;html=1;fontFamily=Helvetica;" vertex="1" parent="1">
          <mxGeometry x="850" y="355.38" width="65" height="28" as="geometry" />
        </mxCell>
        <mxCell id="P7oMfOCCoxa92lgaIV1w-75" value="&lt;div&gt;告警信息&lt;/div&gt;&lt;div&gt;管理&lt;/div&gt;" style="rounded=0;whiteSpace=wrap;html=1;fontFamily=Helvetica;" vertex="1" parent="1">
          <mxGeometry x="850" y="323.88" width="65" height="28" as="geometry" />
        </mxCell>
        <mxCell id="P7oMfOCCoxa92lgaIV1w-76" value="告警信息&lt;br&gt;推送" style="rounded=0;whiteSpace=wrap;html=1;fontFamily=Helvetica;" vertex="1" parent="1">
          <mxGeometry x="780" y="354.88" width="65" height="28.5" as="geometry" />
        </mxCell>
        <mxCell id="P7oMfOCCoxa92lgaIV1w-77" value="管理策略制订与测试" style="text;html=1;align=center;verticalAlign=middle;whiteSpace=wrap;rounded=0;fontFamily=Helvetica;" vertex="1" parent="1">
          <mxGeometry x="777.5" y="293.88" width="135" height="30" as="geometry" />
        </mxCell>
        <mxCell id="P7oMfOCCoxa92lgaIV1w-80" value="生成维修&lt;br&gt;维护工单" style="rounded=0;whiteSpace=wrap;html=1;fontFamily=Helvetica;" vertex="1" parent="1">
          <mxGeometry x="932.5" y="337.63" width="65" height="28.5" as="geometry" />
        </mxCell>
        <mxCell id="P7oMfOCCoxa92lgaIV1w-82" value="记录维修&lt;br&gt;维护日志" style="rounded=0;whiteSpace=wrap;html=1;fontFamily=Helvetica;" vertex="1" parent="1">
          <mxGeometry x="1002.5" y="337.63" width="65" height="28.5" as="geometry" />
        </mxCell>
        <mxCell id="P7oMfOCCoxa92lgaIV1w-83" value="&lt;span style=&quot;color: rgb(0, 0, 0); font-size: 12px; font-style: normal; font-variant-ligatures: normal; font-variant-caps: normal; font-weight: 400; letter-spacing: normal; orphans: 2; text-align: center; text-indent: 0px; text-transform: none; widows: 2; word-spacing: 0px; -webkit-text-stroke-width: 0px; background-color: rgb(251, 251, 251); text-decoration-thickness: initial; text-decoration-style: initial; text-decoration-color: initial; float: none; display: inline !important;&quot;&gt;维修维护管理模块&lt;/span&gt;" style="text;whiteSpace=wrap;html=1;fontFamily=Helvetica;" vertex="1" parent="1">
          <mxGeometry x="950" y="300.13" width="130" height="20" as="geometry" />
        </mxCell>
        <mxCell id="P7oMfOCCoxa92lgaIV1w-85" value="监控运维规则制订与测试" style="rounded=0;whiteSpace=wrap;html=1;fontFamily=Helvetica;" vertex="1" parent="1">
          <mxGeometry x="727.5" y="300" width="42.5" height="90" as="geometry" />
        </mxCell>
        <mxCell id="P7oMfOCCoxa92lgaIV1w-86" value="&lt;p class=&quot;MsoNormal&quot; style=&quot;font-size: 14px;&quot;&gt;监控运维子系统&lt;/p&gt;" style="text;html=1;align=center;verticalAlign=middle;whiteSpace=wrap;rounded=0;fontStyle=1;fontSize=14;fontFamily=Helvetica;" vertex="1" parent="1">
          <mxGeometry x="847.5" y="255" width="105" height="30" as="geometry" />
        </mxCell>
        <mxCell id="P7oMfOCCoxa92lgaIV1w-87" value="" style="rounded=0;whiteSpace=wrap;html=1;flipV=0;fontFamily=Helvetica;" vertex="1" parent="1">
          <mxGeometry x="720" y="120" width="360" height="120" as="geometry" />
        </mxCell>
        <mxCell id="P7oMfOCCoxa92lgaIV1w-88" value="&lt;p class=&quot;MsoNormal&quot; style=&quot;font-size: 14px;&quot;&gt;门户管理与资源调度子系统&lt;/p&gt;" style="text;html=1;align=center;verticalAlign=middle;whiteSpace=wrap;rounded=0;fontStyle=1;fontSize=14;fontFamily=Helvetica;" vertex="1" parent="1">
          <mxGeometry x="810" y="90" width="182.5" height="30" as="geometry" />
        </mxCell>
        <mxCell id="P7oMfOCCoxa92lgaIV1w-92" value="&lt;p class=&quot;MsoNormal&quot;&gt;WEB&lt;font&gt;门户管理&lt;/font&gt;&lt;/p&gt;" style="rounded=0;whiteSpace=wrap;html=1;strokeColor=default;align=center;verticalAlign=middle;fontFamily=Helvetica;fontSize=12;fontColor=default;fillColor=default;" vertex="1" parent="1">
          <mxGeometry x="731.25" y="145" width="60" height="75" as="geometry" />
        </mxCell>
        <mxCell id="P7oMfOCCoxa92lgaIV1w-93" value="作业调度引擎" style="rounded=0;whiteSpace=wrap;html=1;strokeColor=default;align=center;verticalAlign=middle;fontFamily=Helvetica;fontSize=12;fontColor=default;fillColor=default;" vertex="1" parent="1">
          <mxGeometry x="801.25" y="145" width="60" height="75" as="geometry" />
        </mxCell>
        <mxCell id="P7oMfOCCoxa92lgaIV1w-94" value="&lt;p style=&quot;font-size: 12px;&quot; class=&quot;MsoNormal&quot;&gt;&lt;span style=&quot;font-size: 12px;&quot;&gt;&lt;font style=&quot;font-size: 12px;&quot;&gt;模型计算设置&lt;/font&gt;&lt;/span&gt;&lt;/p&gt;" style="rounded=0;whiteSpace=wrap;html=1;strokeColor=default;align=center;verticalAlign=middle;fontFamily=Helvetica;fontSize=12;fontColor=default;fillColor=default;" vertex="1" parent="1">
          <mxGeometry x="871.25" y="145" width="60" height="75" as="geometry" />
        </mxCell>
        <mxCell id="P7oMfOCCoxa92lgaIV1w-95" value="&lt;p class=&quot;MsoNormal&quot;&gt;3D&lt;font&gt;可视化引擎接口&lt;/font&gt;&lt;/p&gt;" style="rounded=0;whiteSpace=wrap;html=1;strokeColor=default;align=center;verticalAlign=middle;fontFamily=Helvetica;fontSize=12;fontColor=default;fillColor=default;" vertex="1" parent="1">
          <mxGeometry x="941.25" y="145" width="60" height="75" as="geometry" />
        </mxCell>
        <mxCell id="P7oMfOCCoxa92lgaIV1w-96" value="&lt;p class=&quot;MsoNormal&quot;&gt;基于GIS的时空计算与展示&lt;/p&gt;" style="rounded=0;whiteSpace=wrap;html=1;strokeColor=default;align=center;verticalAlign=middle;fontFamily=Helvetica;fontSize=12;fontColor=default;fillColor=default;" vertex="1" parent="1">
          <mxGeometry x="1008.75" y="145" width="60" height="75" as="geometry" />
        </mxCell>
        <mxCell id="P7oMfOCCoxa92lgaIV1w-101" value="人工采集" style="rounded=0;whiteSpace=wrap;html=1;" vertex="1" parent="1">
          <mxGeometry x="210" y="303.75" width="90" height="30" as="geometry" />
        </mxCell>
        <mxCell id="P7oMfOCCoxa92lgaIV1w-102" value="自动数据采集" style="rounded=0;whiteSpace=wrap;html=1;" vertex="1" parent="1">
          <mxGeometry x="210" y="257.5" width="90" height="30" as="geometry" />
        </mxCell>
        <mxCell id="P7oMfOCCoxa92lgaIV1w-103" value="实时数据采集" style="rounded=0;whiteSpace=wrap;html=1;" vertex="1" parent="1">
          <mxGeometry x="210" y="210" width="90" height="30" as="geometry" />
        </mxCell>
      </root>
    </mxGraphModel>
  </diagram>
</mxfile>
